:SAMPLES-PER-SECOND 30
:FULLY-SPECIFIED
:DEGREES
20
root  -4.20987 40.6244 2.29087 179.931 -38.1007 -177.075
RightUpLeg  -7.87403 6.1206 1.60057
RightLeg  1.48664 24.9957 -2.79189
RightFoot  2.96825 -1.02319 8.29924
RightToes  -3.13588e-008 1.75238e-005 3.56266e-009
Spine  5.94504 -14.1103 -14.4087
Spine1  -3.4968 -17.5131 20.1517
HEad  -7.77031 -9.17686 0.0109135
LeftShoulder1  2.77233 -5.39569 -24.9794
LeftArm  -22.2981 -26.2105 -56.3854
LeftForeArm  36.7901 -62.8872 -18.5304
LeftHand  -0.61358 -1.97642 9.85671
RightShoulder  1.34384 1.73248 19.2613
RightArm  -19.725 -1.07078 43.2002
RightForeArm  42.6612 75.5805 44.4317
RightHand  -0.180196 6.90956 -2.05261
LeftUpLeg  6.30407 2.81056 -1.28119
LeftLeg  -5.37722 64.7776 -5.41062
LeftFoot  -3.41879 0.275312 -3.67951
LeftToes  4.76812e-008 1.47286e-008 1.3089e-009
21
root  -4.23458 40.6037 2.29928 179.973 -35.6764 -177.039
RightUpLeg  -8.27051 6.36674 1.83701
RightLeg  1.7134 27.0669 -2.64222
RightFoot  2.9226 -1.11841 9.08055
RightToes  -3.13588e-008 1.75238e-005 3.56266e-009
Spine  5.63101 -14.6052 -14.3941
Spine1  -2.73137 -18.0671 19.6754
HEad  -7.76273 -9.75142 0.325261
LeftShoulder1  2.74385 -5.43422 -24.5088
LeftArm  -22.5309 -26.2619 -57.2737
LeftForeArm  37.5035 -63.13 -18.6777
LeftHand  -0.632761 -2.0087 10.1174
RightShoulder  1.37621 1.73834 19.908
RightArm  -19.4193 -0.942181 43.0659
RightForeArm  44.082 75.9698 46.1558
RightHand  -0.233091 6.7514 -2.57634
LeftUpLeg  6.35252 2.96648 -1.4262
LeftLeg  -5.50639 66.9601 -5.68743
LeftFoot  -3.61354 0.280407 -3.83033
LeftToes  4.76812e-008 1.47286e-008 1.3089e-009
22
root  -4.23634 40.5879 2.308 179.909 -33.6192 -177.006
RightUpLeg  -8.4956 6.61945 2.07064
RightLeg  1.86114 28.6789 -2.55385
RightFoot  2.97378 -1.22181 9.86856
RightToes  -3.13588e-008 1.75238e-005 3.56266e-009
Spine  4.99634 -14.6233 -13.451
Spine1  -1.81618 -17.9696 18.1866
HEad  -7.87223 -10.2747 0.382157
LeftShoulder1  2.73558 -5.50202 -24.1691
LeftArm  -22.2341 -26.7295 -57.8433
LeftForeArm  37.9598 -63.1178 -18.6132
LeftHand  -0.663572 -2.29475 10.2255
RightShoulder  1.28097 1.35214 20.0467
RightArm  -19.6868 -1.56781 43.77
RightForeArm  45.9985 76.2847 47.3873
RightHand  -0.172961 7.21128 -1.94792
LeftUpLeg  6.24101 3.23499 -1.45729
LeftLeg  -4.40014 68.7178 -4.88885
LeftFoot  -3.91993 0.27404 -3.86199
LeftToes  4.76812e-008 1.47286e-008 1.3089e-009
23
root  -4.21817 40.5758 2.30239 179.798 -31.9911 -176.926
RightUpLeg  -8.64154 6.76024 2.30504
RightLeg  1.93582 30.0253 -2.38364
RightFoot  3.10676 -1.30632 10.4478
RightToes  -3.13588e-008 1.75238e-005 3.56266e-009
Spine  5.01037 -14.3463 -13.5118
Spine1  -1.58604 -17.7812 18.4252
HEad  -7.87949 -8.52545 -0.316216
LeftShoulder1  2.68912 -5.3536 -24.1535
LeftArm  -22.277 -26.8469 -57.9279
LeftForeArm  38.5135 -63.5205 -18.9302
LeftHand  -0.665789 -2.38323 10.1472
RightShoulder  1.37566 1.65669 20.3424
RightArm  -19.6917 -2.13965 43.7198
RightForeArm  45.5242 76.1882 46.9529
RightHand  -0.156818 7.2121 -1.80133
LeftUpLeg  6.07034 3.55896 -1.34683
LeftLeg  -2.80154 69.97 -3.61161
LeftFoot  -4.19647 0.256418 -3.70274
LeftToes  4.76812e-008 1.47286e-008 1.3089e-009
24
root  -4.19436 40.5681 2.28856 179.689 -30.8715 -176.906
RightUpLeg  -8.66292 6.68804 2.4323
RightLeg  1.94999 31.0682 -2.17741
RightFoot  3.16153 -1.38406 11.0165
RightToes  -3.13588e-008 1.75238e-005 3.56266e-009
Spine  4.76903 -13.8712 -13.0702
Spine1  -1.35265 -17.2396 17.9071
HEad  -7.79308 -8.62922 -0.08016
LeftShoulder1  2.64157 -5.35513 -23.5794
LeftArm  -22.6211 -26.9575 -58.3158
LeftForeArm  38.4823 -63.6837 -19.0944
LeftHand  -0.642752 -2.32305 9.87825
RightShoulder  1.44033 1.8174 20.7817
RightArm  -19.4678 -3.08313 43.681
RightForeArm  44.9427 76.0521 46.3257
RightHand  -0.186898 6.98385 -2.10386
LeftUpLeg  6.07439 3.78481 -1.28275
LeftLeg  -2.03444 70.8575 -3.04334
LeftFoot  -4.38394 0.230061 -3.35205
LeftToes  4.76812e-008 1.47286e-008 1.3089e-009
25
root  -4.15658 40.5712 2.26699 179.502 -30.36 -176.8
RightUpLeg  -8.48672 6.52199 2.59782
RightLeg  1.73529 31.6465 -2.07111
RightFoot  3.37899 -1.42495 11.1788
RightToes  -3.13588e-008 1.75238e-005 3.56266e-009
Spine  4.65632 -13.4912 -12.7454
Spine1  -1.2218 -16.8819 17.9336
HEad  -7.75978 -8.44336 -0.264042
LeftShoulder1  2.52633 -5.0114 -23.4241
LeftArm  -23.2524 -26.8311 -57.7259
LeftForeArm  38.4814 -63.861 -19.27
LeftHand  -0.65145 -2.24902 10.0997
RightShoulder  1.48218 1.95037 20.8954
RightArm  -19.0025 -3.49265 43.8506
RightForeArm  43.3629 75.7434 45.0892
RightHand  -0.175897 6.7119 -2.03198
LeftUpLeg  6.02301 4.04291 -1.04054
LeftLeg  -0.767063 71.0583 -2.00661
LeftFoot  -4.60593 0.212785 -3.14727
LeftToes  4.76812e-008 1.47286e-008 1.3089e-009
26
root  -4.10702 40.5752 2.22587 179.43 -30.5296 -176.778
RightUpLeg  -8.41359 6.4835 2.66305
RightLeg  1.74958 31.4786 -2.00684
RightFoot  3.39202 -1.44605 11.3311
RightToes  -3.13588e-008 1.75238e-005 3.56266e-009
Spine  4.25174 -13.0941 -12.88
Spine1  -0.705126 -16.6054 18.2818
HEad  -7.6124 -7.91641 -0.54803
LeftShoulder1  2.51247 -4.92679 -23.5611
LeftArm  -24.5786 -26.743 -56.8518
LeftForeArm  38.1003 -63.7897 -19.2464
LeftHand  -0.641696 -2.23441 9.97155
RightShoulder  1.48072 1.90198 21.1235
RightArm  -18.7792 -3.69574 43.999
RightForeArm  42.4722 75.5331 44.2376
RightHand  -0.199871 6.80502 -2.25114
LeftUpLeg  5.94345 4.11963 -0.895779
LeftLeg  0.0152812 70.797 -1.30426
LeftFoot  -4.7386 0.191476 -2.84544
LeftToes  4.76812e-008 1.47286e-008 1.3089e-009
27
root  -4.06764 40.5868 2.18084 179.313 -31.2336 -176.791
RightUpLeg  -8.25751 6.24844 2.59357
RightLeg  1.84165 31.0105 -1.82742
RightFoot  3.37079 -1.43615 11.2704
RightToes  -3.13588e-008 1.75238e-005 3.56266e-009
Spine  4.05797 -12.7082 -12.6474
Spine1  -0.607353 -16.2063 18.2056
HEad  -7.48736 -7.61059 -0.993511
LeftShoulder1  2.48273 -4.82351 -23.5742
LeftArm  -25.9337 -26.4311 -56.2
LeftForeArm  37.6561 -63.6224 -19.1347
LeftHand  -0.617867 -1.88536 10.0429
RightShoulder  1.53502 2.06116 21.3277
RightArm  -18.7668 -4.46922 43.8833
RightForeArm  42.9064 75.7115 45.0701
RightHand  -0.199635 6.49144 -2.2911
LeftUpLeg  5.94892 4.21267 -0.719362
LeftLeg  0.652674 69.9738 -0.780587
LeftFoot  -4.88051 0.184158 -2.75348
LeftToes  4.76812e-008 1.47286e-008 1.3089e-009
28
root  -3.99928 40.6013 2.12889 179.295 -32.4708 -176.832
RightUpLeg  -8.20252 6.1095 2.4954
RightLeg  2.03071 30.0159 -1.70767
RightFoot  3.3434 -1.40314 11.0361
RightToes  -3.13588e-008 1.75238e-005 3.56266e-009
Spine  4.11846 -12.2702 -13.3458
Spine1  -0.681373 -15.9769 19.4801
HEad  -7.60598 -7.72388 -1.61435
LeftShoulder1  2.56452 -4.83466 -24.5618
LeftArm  -27.1957 -26.1136 -54.6973
LeftForeArm  38.0515 -63.6575 -19.1225
LeftHand  -0.628455 -2.07545 9.96507
RightShoulder  1.48076 1.95949 20.8162
RightArm  -18.675 -4.84944 44.0086
RightForeArm  42.9711 75.7073 45.0247
RightHand  -0.157542 6.73043 -1.85437
LeftUpLeg  5.72954 4.26299 -0.495379
LeftLeg  1.62844 68.6784 0.0584089
LeftFoot  -4.99743 0.179647 -2.69751
LeftToes  4.76812e-008 1.47286e-008 1.3089e-009
29
root  -3.92999 40.6146 2.06556 179.255 -33.9371 -176.792
RightUpLeg  -8.10085 5.95036 2.43254
RightLeg  2.11428 28.7747 -1.60701
RightFoot  3.30714 -1.36437 10.7621
RightToes  -3.13588e-008 1.75238e-005 3.56266e-009
Spine  3.04528 -12.1146 -11.5314
Spine1  0.304101 -15.3803 16.4728
HEad  -7.58311 -8.36924 0.0139794
LeftShoulder1  2.40599 -4.73363 -22.9372
LeftArm  -27.9524 -26.0687 -54.7634
LeftForeArm  37.912 -63.2974 -18.7878
LeftHand  -0.63616 -2.22125 9.9013
RightShoulder  1.52872 1.94757 21.8227
RightArm  -19.284 -5.43425 43.8922
RightForeArm  43.6947 75.821 45.4111
RightHand  -0.152391 6.80092 -1.80007
LeftUpLeg  5.50971 4.30829 -0.196636
LeftLeg  2.27057 67.1881 0.607591
LeftFoot  -5.10886 0.163411 -2.45163
LeftToes  4.76812e-008 1.47286e-008 1.3089e-009
30
root  -3.88598 40.6296 1.99205 179.193 -35.3483 -176.788
RightUpLeg  -7.95131 5.69395 2.33256
RightLeg  2.25938 27.7941 -1.4331
RightFoot  3.30783 -1.29372 10.2163
RightToes  -3.13588e-008 1.75238e-005 3.56266e-009
Spine  3.11666 -11.5582 -11.4969
Spine1  0.205305 -14.8274 16.597
HEad  -7.62114 -8.59369 0.306481
LeftShoulder1  2.35827 -4.54896 -23.0163
LeftArm  -28.4498 -25.7891 -54.4511
LeftForeArm  38.1651 -63.4677 -18.922
LeftHand  -0.609931 -2.24616 9.47381
RightShoulder  1.47641 1.81337 21.5317
RightArm  -19.6136 -5.56864 43.971
RightForeArm  43.4367 75.7438 45.0619
RightHand  -0.145788 7.04373 -1.71475
LeftUpLeg  5.47745 4.38808 0.0965035
LeftLeg  2.35221 65.6979 0.568211
LeftFoot  -5.14746 0.158911 -2.38092
LeftToes  4.76812e-008 1.47286e-008 1.3089e-009
31
root  -3.83942 40.6454 1.94185 179.279 -36.942 -176.753
RightUpLeg  -7.94196 5.49239 2.19451
RightLeg  2.20324 26.5716 -1.38858
RightFoot  3.38836 -1.27684 10.0348
RightToes  -3.13588e-008 1.75238e-005 3.56266e-009
Spine  3.01483 -11.1411 -10.929
Spine1  -0.091632 -14.249 16.0739
HEad  -7.63373 -8.75712 0.619683
LeftShoulder1  2.32424 -4.43049 -23.0241
LeftArm  -28.6326 -25.3888 -54.2676
LeftForeArm  38.3679 -63.6811 -19.1054
LeftHand  -0.607281 -2.20539 9.48462
RightShoulder  1.51377 1.95893 21.4688
RightArm  -20.3259 -5.82717 43.9007
RightForeArm  43.1592 75.6345 44.5481
RightHand  -0.182176 6.87889 -2.07229
LeftUpLeg  5.10862 4.33853 0.324731
LeftLeg  2.91956 64.1624 1.08582
LeftFoot  -5.11455 0.17458 -2.61669
LeftToes  4.76812e-008 1.47286e-008 1.3089e-009
32
root  -3.80618 40.6616 1.87518 179.368 -38.4048 -176.698
RightUpLeg  -7.8516 5.37067 2.12954
RightLeg  2.03098 25.3281 -1.41258
RightFoot  3.51125 -1.23278 9.62164
RightToes  -3.13588e-008 1.75238e-005 3.56266e-009
Spine  2.87159 -10.6763 -10.514
Spine1  -0.266051 -13.6743 15.7428
HEad  -7.59914 -8.81429 0.389559
LeftShoulder1  2.25521 -4.23649 -22.8577
LeftArm  -28.4333 -25.2077 -54.0096
LeftForeArm  37.894 -63.8137 -19.2959
LeftHand  -0.598338 -1.87693 9.73968
RightShoulder  1.52729 2.02328 21.3828
RightArm  -20.871 -5.93941 43.723
RightForeArm  42.9099 75.607 44.4875
RightHand  -0.175304 6.9636 -1.99811
LeftUpLeg  4.94124 4.35368 0.595925
LeftLeg  2.62496 62.7178 0.772217
LeftFoot  -4.9389 0.178346 -2.66024
LeftToes  4.76812e-008 1.47286e-008 1.3089e-009
33
root  -3.76735 40.6823 1.82387 179.427 -39.9435 -176.675
RightUpLeg  -7.7834 5.05051 1.96672
RightLeg  1.95758 24.1613 -1.26418
RightFoot  3.62154 -1.1844 9.18967
RightToes  -3.13588e-008 1.75238e-005 3.56266e-009
Spine  3.15268 -10.2455 -10.1433
Spine1  -0.772934 -13.1361 15.5161
HEad  -7.61676 -8.68167 0.623748
LeftShoulder1  2.26527 -4.21931 -23.0432
LeftArm  -28.3036 -25.1013 -53.8833
LeftForeArm  37.6053 -64.0112 -19.5303
LeftHand  -0.567731 -1.82732 9.31549
RightShoulder  1.54404 2.08383 21.3738
RightArm  -21.2627 -6.38729 43.5263
RightForeArm  43.8093 75.828 45.4085
RightHand  -0.16253 6.96187 -1.87898
LeftUpLeg  4.80389 4.30903 0.827412
LeftLeg  2.29576 61.2736 0.455642
LeftFoot  -4.72412 0.188527 -2.79666
LeftToes  4.76812e-008 1.47286e-008 1.3089e-009
34
root  -3.73076 40.7017 1.76059 179.441 -41.4403 -176.573
RightUpLeg  -7.68723 4.85588 1.88091
RightLeg  1.84231 22.9557 -1.16014
RightFoot  3.71178 -1.1586 8.94453
RightToes  -3.13588e-008 1.75238e-005 3.56266e-009
Spine  3.13506 -9.70208 -10.3645
Spine1  -0.947316 -12.6674 16.195
HEad  -8.17933 -9.55639 0.763445
LeftShoulder1  2.44498 -4.61034 -23.8987
LeftArm  -28.0453 -25.4507 -53.5016
LeftForeArm  37.3519 -63.8912 -19.4406
LeftHand  -0.584383 -1.86103 9.54018
RightShoulder  1.46743 1.92679 20.7166
RightArm  -21.904 -6.9114 43.7689
RightForeArm  44.1192 75.8894 45.6542
RightHand  -0.21264 6.82587 -2.36755
LeftUpLeg  4.5633 4.28523 1.10427
LeftLeg  2.4671 59.7908 0.654216
LeftFoot  -4.49117 0.225083 -3.3114
LeftToes  4.76812e-008 1.47286e-008 1.3089e-009
